HIERARCHY
ROOT Hips
{
  OFFSET 265.287 66.7526 -254.649
  CHANNELS 6 Xposition Yposition Zposition Zrotation Xrotation Yrotation
  JOINT LeftUpLeg
  {
    OFFSET 8.64259 1.95398 -2.38835
    CHANNELS 3 Zrotation Xrotation Yrotation
    JOINT LeftLeg
    {
      OFFSET 43.7702 0 0
      CHANNELS 3 Zrotation Xrotation Yrotation
      JOINT LeftFoot
      {
        OFFSET 40.6238 0 0
        CHANNELS 3 Zrotation Xrotation Yrotation
        JOINT LeftToeBase
        {
          OFFSET 12.7242 0 0
          CHANNELS 3 Zrotation Xrotation Yrotation
          End Site
          {
            OFFSET 0 0 0
          }
        }
      }
    }
  }
  JOINT RightUpLeg
  {
    OFFSET -8.2249 1.95398 -2.59336
    CHANNELS 3 Zrotation Xrotation Yrotation
    JOINT RightLeg
    {
      OFFSET 43.5653 0 0
      CHANNELS 3 Zrotation Xrotation Yrotation
      JOINT RightFoot
      {
        OFFSET 40.6238 0 0
        CHANNELS 3 Zrotation Xrotation Yrotation
        JOINT RightToeBase
        {
          OFFSET 12.7242 0 0
          CHANNELS 3 Zrotation Xrotation Yrotation
          End Site
          {
            OFFSET 0 0 0
          }
        }
      }
    }
  }
  JOINT Spine
  {
    OFFSET 0.165834 0.87714 6.61349
    CHANNELS 3 Zrotation Xrotation Yrotation
    JOINT Spine1
    {
      OFFSET 7.38963 1.71661e-005 0
      CHANNELS 3 Zrotation Xrotation Yrotation
      JOINT Spine2
      {
        OFFSET 11.9445 1.14441e-005 0
        CHANNELS 3 Zrotation Xrotation Yrotation
        JOINT Spine3
        {
          OFFSET 14.7254 4.19617e-005 0
          CHANNELS 3 Zrotation Xrotation Yrotation
          JOINT Spine4
          {
            OFFSET 10.9679 0 0
            CHANNELS 3 Zrotation Xrotation Yrotation
            JOINT RightShoulder
            {
              OFFSET 2.46616 -1.6653 3.69651
              CHANNELS 3 Zrotation Xrotation Yrotation
              JOINT RightArm
              {
                OFFSET 13.0012 0 0
                CHANNELS 3 Zrotation Xrotation Yrotation
                JOINT RightForeArm
                {
                  OFFSET 28.7848 1.52588e-005 0
                  CHANNELS 3 Zrotation Xrotation Yrotation
                  JOINT RightHand
                  {
                    OFFSET 26.5688 1.52588e-005 0
                    CHANNELS 3 Zrotation Xrotation Yrotation
                    End Site
                    {
                      OFFSET 0 0 0
                    }
                  }
                }
              }
            }
            JOINT LeftShoulder
            {
              OFFSET 2.38034 -1.29275 -3.7523
              CHANNELS 3 Zrotation Xrotation Yrotation
              JOINT LeftArm
              {
                OFFSET 16.3182 6.10351e-005 0
                CHANNELS 3 Zrotation Xrotation Yrotation
                JOINT LeftForeArm
                {
                  OFFSET 27.0901 0 0
                  CHANNELS 3 Zrotation Xrotation Yrotation
                  JOINT LeftHand
                  {
                    OFFSET 24.5451 1.52588e-005 0
                    CHANNELS 3 Zrotation Xrotation Yrotation
                    End Site
                    {
                      OFFSET 0 0 0
                    }
                  }
                }
              }
            }
            JOINT Neck
            {
              OFFSET 5.0226 -0.0266342 0
              CHANNELS 3 Zrotation Xrotation Yrotation
              JOINT Head
              {
                OFFSET 6.69364 2.86102e-005 0
                CHANNELS 3 Zrotation Xrotation Yrotation
                End Site
                {
                  OFFSET 0 0 0
                }
              }
            }
          }
        }
      }
    }
  }
}
MOTION
Frames:	12
Frame Time:	0.0416667
236.171 79.5286 -256.561 -146.165 55.9561 -41.6887 133.979 27.8588 72.6361 -106.261 -13.1424 2.85385 43.1218 -2.49756 -14.4879 78.2585 -21.6427 -16.1898 156.453 30.1867 44.3787 -86.0954 -21.5098 14.4865 89.4927 -14.775 -1.4778 3.60654 3.43506 1.10333 -6.82895 8.30598 -87.7264 10.6002 -12.5589 5.64773 -1.02397 -12.2985 6.20078 -24.0422 -13.6659 1.54893 -4.02959 -13.6659 1.54893 60.6559 -52.7826 -141.627 -174.945 -53.1488 152.774 164.056 31.726 -163.603 -14.6094 0.39359 -8.52092 -45.4214 -54.7794 142.286 -110.322 -13.6193 -72.3479 -119.473 71.2779 -110.606 20.6117 -15.3639 -71.1904 89.9786 16.0893 -32.1114 -121.102 34.2854 14.6389 
236.555 79.5529 -256.939 -146.326 55.7242 -41.6305 133.876 27.9691 72.4558 -106.351 -15.2313 2.85248 42.0521 -2.52347 -15.7807 77.4426 -21.9832 -18.1086 156.192 29.7556 44.436 -86.7721 -20.9083 14.3288 93.2628 -17.1439 -1.59294 -1.5175 3.3719 3.2022 -6.84213 8.30233 -87.6929 10.6112 -12.5695 5.71706 -1.01328 -12.3061 6.27046 -24.0315 -13.6968 1.61184 -4.01885 -13.6968 1.61184 60.5403 -52.8576 -141.732 -178.773 -59.2327 148.571 167.229 38.5126 -163.951 -12.877 0.413621 -9.20688 -45.453 -54.8046 142.232 -105.63 -11.8754 -71.0095 -92.8382 70.9713 -135.222 20.6303 -15.551 -71.798 89.6233 16.0585 -32.5021 -121.846 33.838 15.1119 
237.639 79.6202 -258.013 -146.782 55.0804 -41.4645 133.551 28.2703 72.0046 -106.606 -21.4838 2.85169 38.9747 -2.46795 -19.3961 74.6353 -22.7671 -24.1299 155.381 28.4374 44.6306 -88.1808 -19.0875 13.8818 103.982 -23.7336 -1.24853 -15.1326 1.40064 10.4139 -6.87851 8.28985 -87.5986 10.6464 -12.5975 5.91298 -0.978773 -12.3255 6.46725 -23.9966 -13.7823 1.79025 -3.98395 -13.7823 1.79024 60.2024 -53.0726 -142.041 153.649 -74.0723 120.258 179.064 57.0689 -169.579 -8.63291 0.436861 -11.7916 -45.5374 -54.883 142.084 -93.0271 -6.63351 -67.9917 93.0299 18.6528 -3.32481 20.5048 -16.0305 -73.7822 88.5719 16.014 -33.6033 -123.881 32.5524 16.3846 
239.301 79.7287 -259.677 -147.48 54.1197 -41.2067 132.938 28.6894 71.4742 -107.043 -32.0142 2.84383 34.1539 -2.07325 -24.5287 68.9096 -23.0826 -34.9591 154.437 26.4722 44.5793 -89.5027 -16.0228 13.2048 119.773 -32.5488 1.05937 -30.2092 -7.27941 23.9421 -6.93218 8.26382 -87.4546 10.7141 -12.6359 6.21452 -0.912266 -12.3506 6.76993 -23.9287 -13.9094 2.06644 -3.91601 -13.9094 2.06644 59.6476 -53.4122 -142.552 64.4786 -68.9503 30.8449 -166.064 83.5492 -178.246 -4.79579 0.386359 -16.5729 -45.6529 -55.0219 141.868 -75.9373 1.42196 -65.3709 49.1753 -51.7106 0.386953 19.8748 -16.7311 -77.8013 86.8269 16.0838 -35.2725 -126.813 30.5396 18.1446 
241.438 79.9013 -261.822 -148.362 52.9451 -40.8734 131.993 29.0991 71.0054 -107.817 -46.2164 2.76129 28.202 -1.44979 -29.4115 60.2673 -21.2374 -50.1872 154.438 24.6473 43.4698 -91.3215 -12.6221 12.398 136.397 -40.8014 4.81468 -32.323 -23.1659 44.6076 -6.99691 8.21779 -87.2744 10.8261 -12.6778 6.59622 -0.801878 -12.3758 7.15274 -23.8152 -14.0639 2.41831 -3.80255 -14.0639 2.41831 58.8852 -53.8496 -143.266 43.6582 -43.5794 11.0659 13.9724 68.0434 0.0201693 -3.80598 0.440623 -21.8012 -45.7581 -55.2521 141.624 -58.4441 10.0691 -64.4162 38.8403 -26.527 0.0603305 18.6787 -18.0414 -85.1183 84.409 16.4487 -37.3174 -130.205 27.9661 20.0422 
243.994 80.1655 -264.348 -149.376 51.6542 -40.4775 130.829 29.3515 70.5214 -109.28 -61.7847 2.3546 22.318 -1.43716 -31.8885 51.3698 -16.4621 -66.8273 155.893 23.3722 41.1878 -95.3612 -7.14743 11.3962 150.877 -45.5179 9.39323 -9.63716 -32.0021 75.5339 -7.06699 8.14513 -87.0761 10.9941 -12.7195 7.02418 -0.636006 -12.3988 7.58166 -23.6444 -14.232 2.81475 -3.63179 -14.232 2.81475 57.9567 -54.3276 -144.157 37.9111 -20.5373 8.17774 5.65317 46.2981 0.00466229 -4.74562 0.71601 -25.5126 -45.7713 -55.6652 141.421 -43.6348 17.0607 -64.4796 22.9317 -15.2715 1.47801 22.7655 -23.0525 -98.7294 81.4101 17.3179 -39.4864 -133.676 25.0708 21.7903 
246.922 80.5069 -267.171 -150.478 50.3345 -40.0278 129.716 29.3754 69.8003 -112.348 -75.547 0.659971 17.9936 -2.89946 -31.1889 45.4468 -11.3239 -81.7702 158.461 22.3222 38.3088 -101.044 -2.11179 10.2983 159.363 -49.6962 10.1692 21.0957 -19.8543 99.076 -7.13549 8.04429 -86.8911 11.2184 -12.761 7.43674 -0.41374 -12.4222 7.99518 -23.4166 -14.3953 3.19672 -3.40398 -14.3953 3.19672 57.0339 -54.6984 -145.095 34.5176 -3.41493 9.5584 -3.91465 31.5216 -0.00246561 -5.37714 0.906749 -27.315 -45.4955 -56.5397 141.392 -32.7944 21.6233 -64.1787 -5.41772 27.8524 -34.282 -37.635 3.32652 145.819 78.1008 18.985 -41.3748 -136.937 22.2478 23.2085 
250.135 80.8776 -270.208 -151.631 49.0606 -39.5301 128.818 29.1921 68.7851 -130.455 -87.3186 -15.9264 15.9782 -4.06469 -28.874 43.0895 -8.69246 -92.91 161.621 21.0096 35.4109 -107.499 2.14678 9.0696 160.624 -55.0749 5.85635 43.9139 0.943528 100.854 -7.17537 7.92118 -86.8094 11.4789 -12.791 7.64998 -0.154346 -12.443 8.20931 -23.1547 -14.4879 3.3915 -3.14209 -14.4879 3.39151 56.7513 -54.5588 -145.535 31.4639 8.1345 12.7966 -12.6337 21.1739 0.268614 -4.17412 0.691027 -27.9143 -44.2778 -58.9472 141.901 -25.2543 23.8512 -62.8172 19.4596 23.8589 -70.1361 -11.9016 -10.5907 62.268 75.1256 22.355 -41.8505 -139.703 20.5252 24.2619 
253.518 81.25 -273.371 -152.809 47.8897 -38.9883 128.099 28.8465 67.6233 78.6026 -84.0629 -165.312 15.7886 -5.90422 -25.8593 42.9823 -9.1452 -100.884 164.944 19.0776 32.8696 -114.121 6.89379 7.765 153.636 -60.1931 -4.29155 64.3573 14.7784 88.1676 -7.17755 7.76755 -86.8856 11.7881 -12.8172 7.55842 0.15574 -12.4731 8.11916 -22.8492 -14.4854 3.29545 -2.83659 -14.4854 3.29543 57.3893 -53.6809 -145.271 28.1988 15.7585 17.0422 -18.506 14.503 -3.78949 -1.21245 0.0960759 -28.6359 -41.3765 -63.4206 143.556 -19.8536 24.1409 -60.2049 17.5244 18.4693 -63.4476 -9.27775 -3.10085 42.6995 72.3573 27.9473 -40.1161 -141.626 20.3782 25.2112 
256.962 81.6231 -276.57 -153.992 46.862 -38.4048 127.48 28.3784 66.4708 72.9377 -78.2689 -169.421 16.5507 -7.72101 -23.0717 43.872 -12.3332 -106.124 168.085 16.3153 30.919 -119.841 7.83467 6.40982 131.303 -66.0341 -27.9458 83.6375 20.0156 69.7587 -7.18686 7.59338 -87.0806 12.1333 -12.9121 7.24479 0.503793 -12.5816 7.81061 -22.517 -14.4815 2.96482 -2.50435 -14.4815 2.96481 58.6751 -51.9599 -144.695 24.9017 20.8809 21.6927 -20.1847 13.5607 -18.7705 2.0533 -0.632759 -30.5495 -35.8681 -69.1635 147.524 -15.9574 22.9477 -56.6998 17.075 14.2324 -63.0671 -6.34551 -1.09917 24.7506 69.2394 35.1397 -36.3576 -142.63 21.34 26.4154 
260.367 82.001 -279.716 -155.172 46.0056 -37.7802 126.929 27.8294 65.4177 70.5801 -74.0699 -170.234 17.5469 -9.1774 -20.8893 45.1234 -16.792 -109.07 170.746 12.6583 29.6971 -125.011 9.40002 5.17134 103.628 -64.6563 -55.067 99.1535 18.8587 53.0582 -7.19287 7.5022 -87.2995 12.3041 -13.02 6.85086 0.678054 -12.7066 7.42251 -22.3605 -14.4659 2.55329 -2.34789 -14.4659 2.55329 60.5247 -49.6098 -143.747 22.7526 24.5951 25.365 -20.0508 14.4553 -32.5455 4.41088 -1.30048 -33.4546 -26.2428 -75.1279 155.463 -12.5203 20.8068 -53.4414 17.007 11.1479 -64.3283 -4.01333 -0.306332 11.0497 66.4658 41.8492 -31.6637 -143.522 22.674 27.713 
263.632 82.3834 -282.719 -156.345 45.3417 -37.113 126.457 27.2429 64.5022 68.9059 -70.9892 -170.406 18.3913 -10.317 -19.3381 46.4764 -21.4094 -110.41 172.691 8.24845 29.2291 -129.312 10.0481 4.10515 84.4085 -58.0936 -72.7561 109.975 14.8434 40.6546 -7.13277 7.41914 -87.6812 12.3128 -13.0734 5.96361 0.69044 -12.7992 6.53968 -22.355 -14.2485 1.68781 -2.3424 -14.2485 1.6878 63.8179 -46.0829 -141.507 20.9419 28.1826 28.1036 -18.6331 15.8722 -44.2858 5.73542 -1.80584 -36.2987 8.54966 -83.1678 -173.302 -7.80465 16.8433 -50.2312 16.957 8.72287 -66.4499 -2.38016 -0.0905361 1.34099 63.3983 51.6157 -26.1809 -145.254 25.4173 29.5766 
